# xmcd CD database file
#
# Track frame offsets:
#	150
#	20813
#	41310
#	61372
#	82179
#	102485
#	123037
#	142057
#
# Disc length: 2174 seconds
#
# Revision: 0
# Processed by: cddbd v1.5.2PL0 Copyright (c) Steve Scherf et al.
# Submitted via: CDex 1.51
#
DISCID=6d087c08
DTITLE=Ray Gonzalez - Yo tengo lo que te gusta
DYEAR=1900
DGENRE=Salsa
TTITLE0=Yo tengo lo que te gusta
TTITLE1=Ameme
TTITLE2=Sandunga
TTITLE3=Payaso
TTITLE4=No hagas caso
TTITLE5=A mi qué
TTITLE6=El swing
TTITLE7=Yo tengo lo que te gusta (Salsatón)
EXTD=
EXTT0=
EXTT1=
EXTT2=
EXTT3=
EXTT4=
EXTT5=
EXTT6=
EXTT7=
PLAYORDER=
